<svg width="68" height="67" viewBox="0 0 68 67" fill="none" xmlns="http://www.w3.org/2000/svg">
<g clip-path="url(#clip0_1_674)">
<path d="M56.7406 49.8569C56.7408 50.5665 56.7424 51.2759 56.744 51.9851C56.7484 53.947 56.7528 55.9075 56.7279 57.8675C56.7229 58.2793 56.575 58.6014 56.3299 58.8253C56.0833 59.0505 55.7281 59.1853 55.2945 59.1999C54.7993 59.2166 54.3054 59.2142 53.8084 59.2118C53.5584 59.2106 53.3078 59.2094 53.0558 59.2106C52.6375 59.2125 52.2982 59.2885 52.0611 59.4499C51.8163 59.6165 51.6933 59.8659 51.6985 60.1747L51.6985 60.1752C51.7047 60.4732 51.8222 60.7106 52.0585 60.8682C52.2863 61.0201 52.6107 61.0884 53.0155 61.0912H53.0157C53.4228 61.0936 53.8312 61.0928 54.2392 61.092C54.443 61.0916 54.6468 61.0912 54.8502 61.0912H54.8506C56.0849 61.0876 57.0392 60.7726 57.6847 60.1294C58.3302 59.4862 58.6465 58.535 58.6483 57.3029C58.6494 56.3623 58.6489 55.422 58.6484 54.4818C58.6472 52.2258 58.646 49.9705 58.6665 47.7149C58.6699 47.3455 58.8071 46.9206 59.0184 46.6141L59.0184 46.614C59.358 46.1212 59.6958 45.6273 60.0334 45.1336C61.3893 43.1512 62.7432 41.1716 64.202 39.2724C65.6396 37.4027 65.9754 35.2447 66.3091 33.1006C66.3229 33.0116 66.3368 32.9227 66.3507 32.8338L66.3507 32.8337C66.4143 32.4257 66.2684 32.0855 65.9936 31.9004C65.7205 31.7165 65.3444 31.7022 64.9787 31.8917C62.7667 33.0364 60.5221 34.2134 59.2574 36.5832C59.1675 36.7514 59.0555 36.9107 58.9342 37.0714C58.891 37.1287 58.8458 37.187 58.8002 37.2461C58.7489 37.3123 58.6971 37.3793 58.6465 37.4466V36.8387C58.6465 35.4656 58.6466 34.0925 58.6467 32.7194C58.6471 28.5999 58.6474 24.4805 58.6447 20.361C58.6447 20.3016 58.6476 20.239 58.6507 20.1722L58.6514 20.1579C58.6546 20.087 58.6579 20.0117 58.6569 19.9378C58.6551 19.7935 58.6375 19.6331 58.5544 19.5022C58.4683 19.3665 58.3408 19.2201 58.1996 19.1057C58.0622 18.9944 57.8926 18.8977 57.7235 18.8941V18.8941L57.7226 18.8941C57.5515 18.8917 57.3821 18.9844 57.2429 19.0899C57.0995 19.1986 56.9673 19.3371 56.867 19.4593L56.867 19.4593C56.7798 19.5657 56.7587 19.7094 56.753 19.8311C56.7495 19.907 56.7521 19.995 56.7544 20.0736C56.7557 20.1177 56.757 20.1589 56.757 20.1933C56.7526 21.3822 56.7529 22.57 56.7532 23.7581C56.7533 24.0556 56.7533 24.353 56.7533 24.6505C56.7533 25.8663 56.7534 27.0821 56.7536 28.2977C56.7539 31.9443 56.7542 35.5902 56.7515 39.2373C56.7512 39.3221 56.7532 39.4034 56.7551 39.4821C56.7643 39.8498 56.7719 40.1598 56.5311 40.5004C52.2533 46.5325 47.999 52.5808 43.7648 58.6435L43.7647 58.6436C43.6018 58.8774 43.4419 59.0195 43.2625 59.1054C43.0819 59.1918 42.87 59.2268 42.593 59.2268C36.4685 59.2112 30.344 59.2132 24.2198 59.2152C23.2775 59.2155 22.3352 59.2158 21.3929 59.216C20.9872 59.216 20.6654 59.2836 20.4417 59.4404C20.2095 59.6032 20.1016 59.8483 20.0986 60.1533L20.2236 60.1545L20.0986 60.1533C20.0956 60.4603 20.1948 60.706 20.4247 60.8693C20.6448 61.0255 20.9658 61.092 21.3751 61.0966H21.3766H21.3776H21.3787H21.3797H21.3808H21.3818H21.3829H21.3839H21.385H21.386H21.3871H21.3881H21.3892H21.3902H21.3913H21.3924H21.3934H21.3945H21.3955H21.3966H21.3976H21.3987H21.3997H21.4008H21.4018H21.4029H21.404H21.405H21.4061H21.4071H21.4082H21.4092H21.4103H21.4113H21.4124H21.4134H21.4145H21.4156H21.4166H21.4177H21.4187H21.4198H21.4208H21.4219H21.4229H21.424H21.425H21.4261H21.4272H21.4282H21.4293H21.4303H21.4314H21.4324H21.4335H21.4345H21.4356H21.4367H21.4377H21.4388H21.4398H21.4409H21.4419H21.443H21.444H21.4451H21.4462H21.4472H21.4483H21.4493H21.4504H21.4514H21.4525H21.4535H21.4546H21.4557H21.4567H21.4578H21.4588H21.4599H21.4609H21.462H21.4631H21.4641H21.4652H21.4662H21.4673H21.4683H21.4694H21.4704H21.4715H21.4726H21.4736H21.4747H21.4757H21.4768H21.4778H21.4789H21.48H21.481H21.4821H21.4831H21.4842H21.4852H21.4863H21.4874H21.4884H21.4895H21.4905H21.4916H21.4926H21.4937H21.4948H21.4958H21.4969H21.4979H21.499H21.5H21.5011H21.5022H21.5032H21.5043H21.5053H21.5064H21.5074H21.5085H21.5096H21.5106H21.5117H21.5127H21.5138H21.5149H21.5159H21.517H21.518H21.5191H21.5201H21.5212H21.5223H21.5233H21.5244H21.5254H21.5265H21.5276H21.5286H21.5297H21.5307H21.5318H21.5328H21.5339H21.535H21.536H21.5371H21.5381H21.5392H21.5403H21.5413H21.5424H21.5434H21.5445H21.5455H21.5466H21.5477H21.5487H21.5498H21.5508H21.5519H21.553H21.554H21.5551H21.5561H21.5572H21.5583H21.5593H21.5604H21.5614H21.5625H21.5636H21.5646H21.5657H21.5667H21.5678H21.5688H21.5699H21.571H21.572H21.5731H21.5741H21.5752H21.5763H21.5773H21.5784H21.5794H21.5805H21.5816H21.5826H21.5837H21.5847H21.5858H21.5869H21.5879H21.589H21.59H21.5911H21.5922H21.5932H21.5943H21.5953H21.5964H21.5975H21.5985H21.5996H21.6006H21.6017H21.6028H21.6038H21.6049H21.6059H21.607H21.6081H21.6091H21.6102H21.6112H21.6123H21.6134H21.6144H21.6155H21.6165H21.6176H21.6187H21.6197H21.6208H21.6219H21.6229H21.624H21.625H21.6261H21.6272H21.6282H21.6293H21.6303H21.6314H21.6325H21.6335H21.6346H21.6356H21.6367H21.6378H21.6388H21.6399H21.6409H21.642H21.6431H21.6441H21.6452H21.6463H21.6473H21.6484H21.6494H21.6505H21.6516H21.6526H21.6537H21.6547H21.6558H21.6569H21.6579H21.659H21.6601H21.6611H21.6622H21.6632H21.6643H21.6654H21.6664H21.6675H21.6685H21.6696H21.6707H21.6717H21.6728H21.6739H21.6749H21.676H21.677H21.6781H21.6792H21.6802H21.6813H21.6823H21.6834H21.6845H21.6855H21.6866H21.6877H21.6887H21.6898H21.6908H21.6919H21.693H21.694H21.6951H21.6962H21.6972H21.6983H21.6993H21.7004H21.7015H21.7025H21.7036H21.7046H21.7057H21.7068H21.7078H21.7089H21.71H21.711H21.7121H21.7131H21.7142H21.7153H21.7163H21.7174H21.7185H21.7195H21.7206H21.7216H21.7227H21.7238H21.7248H21.7259H21.727H21.728H21.7291H21.7301H21.7312H21.7323H21.7333H21.7344H21.7355H21.7365H21.7376H21.7386H21.7397H21.7408H21.7418H21.7429H21.744H21.745H21.7461H21.7471H21.7482H21.7493H21.7503H21.7514H21.7525H21.7535H21.7546H21.7557H21.7567H21.7578H21.7588H21.7599H21.761H21.762H21.7631H21.7642H21.7652H21.7663H21.7673H21.7684H21.7695H21.7705H21.7716H21.7727H21.7737H21.7748H21.7758H21.7769H21.778H21.779H21.7801H21.7812H21.7822H21.7833H21.7844H21.7854H21.7865H21.7875H21.7886H21.7897H21.7907H21.7918H21.7929H21.7939H21.795H21.7961H21.7971H21.7982H21.7992H21.8003H21.8014H21.8024H21.8035H21.8046H21.8056H21.8067H21.8077H21.8088H21.8099H21.8109H21.812H21.8131H21.8141H21.8152H21.8163H21.8173H21.8184H21.8194H21.8205H21.8216H21.8226H21.8237H21.8248H21.8258H21.8269H21.828H21.829H21.8301H21.8311H21.8322H21.8333H21.8343H21.8354H21.8365H21.8375H21.8386H21.8397H21.8407H21.8418H21.8428H21.8439H21.845H21.846H21.8471H21.8482H21.8492H21.8503H21.8514H21.8524H21.8535H21.8545H21.8556H21.8567H21.8577H21.8588H21.8599H21.8609H21.862H21.8631H21.8641H21.8652H21.8662H21.8673H21.8684H21.8694H21.8705H21.8716H21.8726H21.8737H21.8748H21.8758H21.8769H21.8779H21.879H21.8801H21.8811H21.8822H21.8833H21.8843H21.8854H21.8865H21.8875H21.8886H21.8897H21.8907H21.8918H21.8928H21.8939H21.895H21.896H21.8971H21.8982H21.8992H21.9003H21.9014H21.9024H21.9035H21.9045H21.9056H21.9067H21.9077H21.9088H21.9099H21.9109H21.912H21.9131H21.9141H21.9152H21.9162H21.9173H21.9184H21.9194H21.9574H21.9954H22.0333H22.0713H22.1092H22.1472H22.1851H22.2231H22.2611H22.299H22.337H22.3749H22.4129H22.4509H22.4888H22.5268H22.5647H22.6027H22.6406H22.6786H22.7166H22.7545H22.7925H22.8304H22.8684H22.9064H22.9443H22.9823H23.0202H23.0582H23.0961H23.1341H23.1721H23.21H23.248H23.2859H23.3239H23.3618H23.3998H23.4378H23.4757H23.5137H23.5516H23.5896H23.6275H23.6655H23.7035H23.7414H23.7794H23.8173H23.8553H23.8932H23.9312H23.9692H24.0071H24.0451H24.083H24.121H24.1589H24.1969H24.2349H24.2728H24.3108H24.3487H24.3867H24.4246H24.4626H24.5006H24.5385H24.5765H24.6144H24.6524H24.6903H24.7283H24.7662H24.8042H24.8422H24.8801H24.9181H24.956H24.994H25.0319H25.0699H25.1078H25.1458H25.1838H25.2217H25.2597H25.2976H25.3356H25.3735H25.4115H25.4495H25.4874H25.5254H25.5633H25.6013H25.6392H25.6772H25.7151H25.7531H25.7911H25.829H25.867H25.9049H25.9429H25.9808H26.0188H26.0567H26.0947H26.1326H26.1706H26.2086H26.2465H26.2845H26.3224H26.3604H26.3983H26.4363H26.4742H26.5122H26.5502H26.5881H26.6261H26.664H26.702H26.7399H26.7779H26.8158H26.8538H26.8917H26.9297H26.9677H27.0056H27.0436H27.0815H27.1195H27.1574H27.1954H27.2333H27.2713H27.3093H27.3472H27.3852H27.4231H27.4611H27.499H27.537H27.5749H27.6129H27.6508H27.6888H27.7267H27.7647H27.8027H27.8406H27.8786H27.9165H27.9545H27.9924H28.0304H28.0683H28.1063H28.1442H28.1822H28.2202H28.2581H28.2961H28.334H28.372H28.4099H28.4479H28.4858H28.5238H28.5617H28.5997H28.6376H28.6756H28.7136H28.7515H28.7895H28.8274H28.8654H28.9033H28.9413H28.9792H29.0172H29.0551H29.0931H29.1311H29.169H29.207H29.2449H29.2829H29.3208H29.3588H29.3967H29.4347H29.4726H29.5106H29.5485H29.5865H29.6245H29.6624H29.7004H29.7383H29.7763H29.8142H29.8522H29.8901H29.9281H29.966H30.004H30.0419H30.0799H30.1178H30.1558H30.1938H30.2317H30.2697H30.3076H30.3456H30.3835H30.4215H30.4594H30.4974H30.5353H30.5733H30.6112H30.6492H30.6872H30.7251H30.7631H30.801H30.839H30.8769H30.9149H30.9528H30.9908H31.0287H31.0667H31.1046H31.1426H31.1805H31.2185H31.2565H31.2944H31.3324H31.3703H31.4083H31.4462H31.4842H31.5221H31.5601H31.598H31.636H31.6739H31.7119H31.7499H31.7878H31.8258H31.8637H31.9017H31.9396H31.9776H32.0155H32.0535H32.0914H32.1294H32.1673H32.2053H32.2432H32.2812H32.3192H32.3571H32.3951H32.433H32.471H32.5089H32.5469H32.5848H32.6228H32.6607H32.6987H32.7366H32.7746H32.8125H32.8505H32.8885H32.9264H32.9644H33.0023H33.0403H33.0782H33.1162H33.1541H33.1921H33.23H33.268H33.3059H33.3439H33.3819H33.4198H33.4578H33.4957H33.5337H33.5716H33.6096H33.6475H33.6855H33.7234H33.7614H33.7993H33.8373H33.8753H33.9132H33.9512H33.9891H34.0271H34.065H34.103H34.1409H34.1789H34.2168H34.2548H34.2927H34.3307H34.3687H34.4066H34.4446H34.4825H34.5205H34.5584H34.5964H34.6343H34.6723H34.7102H34.7482H34.7861H34.8241H34.8621H34.9H34.938H34.9759H35.0139H35.0518H35.0898H35.1277H35.1657H35.2036H35.2416H35.2796H35.3175H35.3555H35.3934H35.4314H35.4693H35.5073H35.5452H35.5832H35.6211H35.6591H35.697H35.735H35.773H35.8109H35.8489H35.8868H35.9248H35.9627H36.0007H36.0386H36.0766H36.1145H36.1525H36.1905H36.2284H36.2664H36.3043H36.3423H36.3802H36.4182H36.4561H36.4941H36.5321H36.57H36.608H36.6459H36.6839H36.7218H36.7598H36.7977H36.8357H36.8736H36.9116H36.9496H36.9875H37.0255H37.0634H37.1014H37.1393H37.1773H37.2152H37.2532H37.2912H37.3291H37.3671H37.405H37.443H37.4809H37.5189H37.5568H37.5948H37.6328H37.6707H37.7087H37.7466H37.7846H37.8225H37.8605H37.8984H37.9364H37.9744H38.0123H38.0503H38.0882H38.1262H38.1641H38.2021H38.24H38.278H38.316H38.3539H38.3919H38.4298H38.4678H38.5057H38.5437H38.5816H38.6196H38.6576H38.6955H38.7335H38.7714H38.8094H38.8473H38.8853H38.9233H38.9612H38.9992H39.0371H39.0751H39.113H39.151H39.189H39.2269H39.2649H39.3028H39.3408H39.3787H39.4167H39.4546H39.4926H39.5306H39.5685H39.6065H39.6444H39.6824H39.7203H39.7583H39.7963H39.8342H39.8722H39.9101H39.9481H39.986H40.024H40.062H40.0999H40.1379H40.1758H40.2138H40.2518H40.2897H40.3277H40.3656H40.4036H40.4415H40.4795H40.5175H40.5554H40.5934H40.6313H40.6693H40.7072H40.7452H40.7832H40.8211H40.8591H40.897H40.935H40.973H41.0109H41.0489H41.0868H41.1248H41.1627H41.2007H41.2387H41.2766H41.3146H41.3525H41.354H41.3555H41.357H41.3585H41.36H41.3615H41.363H41.3645H41.3659H41.3674H41.3689H41.3704H41.3719H41.3734H41.3749H41.3764H41.3779H41.3794H41.3808H41.3823H41.3838H41.3853H41.3868H41.3883H41.3898H41.3913H41.3928H41.3943H41.3958H41.3972H41.3987H41.4002H41.4017H41.4032H41.4047H41.4062H41.4077H41.4092H41.4107H41.4122H41.4137H41.4152H41.4167H41.4181H41.4196H41.4211H41.4226H41.4241H41.4256H41.4271H41.4286H41.4301H41.4316H41.4331H41.4346H41.4361H41.4376H41.4391H41.4406H41.4421H41.4436H41.4451H41.4466H41.4481H41.4496H41.4511H41.4526H41.4541H41.4556H41.4571H41.4586H41.4601H41.4616H41.4631H41.4646H41.4661H41.4676H41.4691H41.4706H41.4721H41.4736H41.4751H41.4766H41.4781H41.4797H41.4812H41.4827H41.4842H41.4857H41.4872H41.4887H41.4902H41.4917H41.4932H41.4948H41.4963H41.4978H41.4993H41.5008H41.5023H41.5038H41.5054H41.5069H41.5084H41.5099H41.5114H41.5129H41.5145H41.516H41.5175H41.519H41.5205H41.5221H41.5236H41.5251H41.5266H41.5281H41.5297H41.5312H41.5327H41.5342H41.5358H41.5373H41.5388H41.5404H41.5419H41.5434H41.5449H41.5465H41.548H41.5495H41.5511H41.5526H41.5541H41.5557H41.5572H41.5587H41.5603H41.5618H41.5634H41.5649H41.5664H41.568H41.5695H41.5711H41.5726H41.5742H41.5757H41.5772H41.5788H41.5803H41.5819H41.5834H41.585H41.5865H41.5881H41.5896H41.5912H41.5927H41.5943H41.5958H41.5974H41.5989H41.6005H41.6021H41.6036H41.6052H41.6067H41.6083H41.6099H41.6114H41.613H41.6146H41.6161H41.6177H41.6193H41.6208H41.6224H41.624H41.6255H41.6271H41.6287H41.6302H41.6318H41.6334H41.635H41.6365H41.6381H41.6397H41.6413H41.6429H41.6444H41.646H41.6476H41.6492H41.6508H41.6524H41.654H41.6555H41.6571H41.6587H41.6603H41.6619H41.6635H41.6651H41.6667H41.6683H41.6699H41.6715H41.6731H41.6747H41.6763H41.6779H41.6795H41.6811H41.6827H41.6843H41.6859H41.6875H41.6891H41.6908H41.6924H41.694H41.6956H41.6972H41.6988H41.7005H41.7021H41.7037H41.7053H41.7069H41.7086H41.7102H41.7118H41.7134H41.7151H41.7167H41.7183H41.72H41.7216H41.7232H41.7249H41.7265H41.7281H41.7298H41.7314H41.7331H41.7347H41.7364H41.738H41.7396H41.7413H41.7429H41.7446H41.7463H41.7479H41.7496H41.7512H41.7529H41.7545H41.7562H41.7579H41.7595H41.7612H41.7628H41.7645H41.7662H41.7679H41.7695H41.7712H41.7729H41.7745H41.7762H41.7779H41.7796H41.7813H41.7829H41.7846H41.7863H41.788H41.7897H41.7914H41.7931H41.7947H41.7964H41.7981H41.7998H41.8015H41.8032H41.8049H41.8066H41.8083H41.81H41.8117H41.8135H41.8152H41.8169H41.8186H41.8203H41.822H41.8237H41.8254H41.8272H41.8289H41.8306H41.8323H41.8341H41.8358H41.8375H41.8392H41.841H41.8427H41.8444H41.8462H41.8479H41.8497H41.8514H41.8531H41.8549H41.8566H41.8584H41.8601H41.8619H41.8636H41.8654H41.8672H41.8689H41.8707H41.8724H41.8742H41.876H41.8777H41.8795H41.8813H41.883H41.8848H41.8866H41.8884H41.8901H41.8919H41.8937H41.8955H41.8973H41.899H41.9008H41.9026H41.9044H41.9062H41.908H41.9098H41.9116H41.9134H41.9152H41.917H41.9188H41.9206H41.9224H41.9242H41.9261H41.9279H41.9297H41.9315H41.9333H41.9351H41.937H41.9388H41.9406H41.9424H41.9443H41.9461H41.9479H41.9498H41.9516H41.9535H41.9553H41.9571H41.959H41.9608H41.9627H41.9645H41.9664H41.9683H41.9701H41.972H41.9738H41.9757H41.9776H41.9794H41.9813H41.9832H41.985H41.9869H41.9888H41.9907H41.9926H41.9944H41.9963C41.9638 61.146 41.933 61.1927 41.9037 61.2373C41.7817 61.4223 41.6844 61.5699 41.5914 61.719M41.5914 61.719C41.5914 61.719 41.5915 61.719 41.5915 61.719L41.6975 61.7851L41.5914 61.719Z" fill="black" stroke="black" stroke-width="0.25"/>
<path d="M37.8029 45.6593C38.7471 45.6593 39.604 45.6665 40.4592 45.6575C41.0711 45.6503 41.4125 45.9551 41.4215 46.545C41.4379 47.5804 41.4833 48.6211 41.3852 49.6493C41.1183 52.4524 39.1174 54.4257 36.2977 54.6206C35.2265 54.6945 34.1044 54.6801 33.064 54.4474C30.631 53.9045 28.9933 51.7706 28.9624 49.2994C28.9406 47.5659 28.9388 45.8325 28.966 44.099C28.9751 43.5182 28.7899 43.1466 28.2834 42.831C23.6425 39.9287 21.224 34.5606 22.2245 29.4469C23.3084 23.9056 27.3882 19.8489 32.906 18.8261C40.3884 17.439 47.7473 23.0272 48.2702 30.558C48.6388 35.8485 46.4945 39.9395 42.0643 42.8761C41.781 43.0637 41.5632 43.4208 41.4342 43.7473C41.2563 44.2019 41.0203 44.5139 40.5046 44.4472C39.949 44.3732 39.7747 43.9854 39.8092 43.4695C39.8728 42.5478 40.3993 41.9525 41.1583 41.4944C43.2318 40.2407 44.7987 38.5181 45.721 36.2886C47.4931 32.0046 46.9884 27.9443 43.9998 24.3944C40.993 20.8229 37.0149 19.4971 32.4667 20.6317C27.9111 21.7663 25.0061 24.7768 23.9457 29.3386C22.8636 33.996 24.9098 38.7959 28.9624 41.3212C30.1335 42.0499 30.7145 42.9518 30.5947 44.3155C30.5584 44.7358 30.5893 45.1615 30.5893 45.6232H32.6609C32.6609 44.6763 32.7735 43.7221 32.6174 42.8147C32.5302 42.3097 32.04 41.8371 31.6496 41.4258C30.7381 40.4626 29.7486 39.5733 28.8498 38.6011C28.376 38.087 28.4286 37.526 28.8716 37.2573C29.4073 36.9326 29.7649 37.1995 30.148 37.6126C30.9578 38.4838 31.7713 39.3677 32.6882 40.1217C33.7776 41.02 34.3786 42.0878 34.3786 43.4912C34.3786 44.1856 34.3786 44.8801 34.3786 45.6196H36.1688C36.1688 44.9685 36.1888 44.3227 36.1652 43.6788C36.1089 42.1347 36.7825 41.0128 37.9627 40.0225C38.9867 39.1639 39.9345 38.161 40.7134 37.0787C41.7393 35.6555 41.7538 33.9924 41.249 32.351C40.6571 30.4245 38.689 29.6363 36.9041 30.5868C36.5156 30.7925 36.1561 30.9242 35.7748 30.6175C35.3045 30.2387 35.4099 29.602 35.9963 29.2232C38.3567 27.7008 41.6721 28.7993 42.678 31.5068C43.7365 34.3568 43.1664 36.9632 41.1909 39.245C40.5464 39.99 39.8129 40.6845 39.0267 41.2779C38.1461 41.9399 37.723 42.7264 37.7956 43.814C37.8356 44.3949 37.8029 44.9793 37.8029 45.6647V45.6593ZM30.6001 47.3044C30.6001 48.0944 30.5638 48.8142 30.6074 49.5303C30.7163 51.2817 32.1217 52.7825 33.8774 52.9647C34.7272 53.0531 35.6205 53.118 36.443 52.9466C37.2019 52.7879 38.0063 52.4308 38.5909 51.9311C40.0362 50.6973 39.8437 48.9819 39.7547 47.3044H30.602H30.6001Z" fill="#FFDD03"/>
<path d="M33.8732 4.57918L33.8733 4.57911C34.614 3.78732 35.3529 2.99557 36.0899 2.20204C36.9554 1.26951 38.0132 0.902928 39.2776 1.18935L39.2778 1.18938C39.3149 1.19785 39.3525 1.20154 39.3988 1.20609C39.4096 1.20714 39.4208 1.20825 39.4326 1.20947C39.49 1.2154 39.5599 1.22416 39.628 1.25014C40.147 1.4412 40.6027 1.49613 41.0207 1.40024C41.438 1.30451 41.833 1.05493 42.2245 0.608356C42.8684 -0.12788 43.8599 -0.233043 44.8057 -0.0377521C47.6934 0.555233 50.3714 1.65646 52.7814 3.35008L52.7815 3.35011C53.5264 3.87397 54.2514 4.11992 55.1595 3.97823C55.8489 3.87003 56.5515 3.82483 57.2428 3.78037C57.5026 3.76366 57.7607 3.74705 58.016 3.72724C58.0498 3.45531 58.0784 3.23745 58.1176 3.06529C58.1616 2.87149 58.2227 2.71717 58.3354 2.60065C58.4487 2.48353 58.5997 2.41945 58.7906 2.37421C58.9802 2.32928 59.2265 2.29932 59.5418 2.26217L59.5419 2.26217C61.3857 2.0456 63.233 1.85252 65.0796 1.66312L33.8732 4.57918ZM33.8732 4.57918C33.1738 5.32803 32.8239 6.0311 32.8607 6.71022C32.8965 7.37313 33.2984 7.9755 34.013 8.54373M33.8732 4.57918L34.013 8.54373M34.013 8.54373C33.9729 8.7524 33.9252 8.94981 33.8783 9.14406C33.8486 9.26672 33.8193 9.38813 33.7924 9.51032C33.7193 9.84192 33.6668 10.1691 33.6948 10.4943L33.6948 10.4945C33.7568 11.2012 34.0522 11.6955 34.4912 12.0563C34.9248 12.4126 35.4932 12.6342 36.0951 12.813L36.0952 12.813C38.5588 13.543 41.0066 14.3397 43.4444 15.1584C44.6966 15.5795 45.6013 16.4437 46.069 17.6728C46.7782 19.5377 47.4386 21.4193 48.081 23.3089C48.2036 23.6706 48.3255 23.9392 48.5412 24.0884C48.7619 24.241 49.0495 24.2488 49.4412 24.1859L49.4413 24.1859C50.0662 24.0848 50.6948 23.9778 51.3153 23.8287C52.8402 23.4625 53.8222 22.3141 53.967 20.7642C54.0409 19.9782 54.1125 19.1922 54.1862 18.3831C54.2039 18.1897 54.2216 17.9951 54.2395 17.7988C55.3458 17.634 56.4446 17.4713 57.5474 17.3079C58.1466 17.2191 58.747 17.1302 59.3504 17.0407C59.3543 17.0595 59.3582 17.0775 59.3619 17.0949C59.3825 17.1916 59.3987 17.2676 59.4066 17.348C59.4066 17.3481 59.4066 17.3482 59.4066 17.3483L59.531 17.3361M34.013 8.54373L61.0072 18.6309M59.531 17.3361C59.64 18.4797 59.8197 18.6439 60.9926 18.5068C62.0503 18.3838 63.1054 18.2483 64.1606 18.1129C64.9006 18.0179 65.6406 17.9229 66.3815 17.8322M59.531 17.3361C59.5225 17.2487 59.504 17.162 59.4824 17.0602C59.4719 17.0108 59.4606 16.9579 59.4493 16.8996L59.531 17.3361ZM66.3815 17.8322L66.3967 17.9563M66.3815 17.8322L66.3967 17.9562C66.3967 17.9562 66.3967 17.9563 66.3967 17.9563M66.3815 17.8322C67.2985 17.7203 67.5254 17.4949 67.4964 16.5749C67.4785 16.0188 67.4655 15.4622 67.4525 14.9055C67.4167 13.3677 67.3808 11.8297 67.2422 10.3013C67.0346 8.02692 66.7094 5.76272 66.3844 3.49953C66.3483 3.2481 66.3122 2.99669 66.2762 2.74527M66.3967 17.9563C65.6575 18.0467 64.918 18.1417 64.1782 18.2367C63.122 18.3722 62.065 18.5079 61.0072 18.6309M66.3967 17.9563L65.0797 1.66311C65.4611 1.62367 65.7702 1.65073 65.9979 1.82736C66.2255 2.00394 66.3399 2.30515 66.4 2.72767M61.0072 18.6309L60.9927 18.507L61.0071 18.631C61.0071 18.631 61.0071 18.6309 61.0072 18.6309ZM66.2762 2.74527L66.4 2.72767M66.2762 2.74527C66.1582 1.91553 65.8423 1.70989 65.0924 1.78746L66.4 2.72767M66.2762 2.74527L66.4 2.72758C66.4 2.72761 66.4 2.72764 66.4 2.72767M44.0403 8.08095C44.2914 8.20612 44.5412 8.24589 44.7681 8.18387C44.9965 8.12144 45.1829 7.961 45.3147 7.72298L45.3148 7.72282C45.4454 7.48634 45.4865 7.23613 45.4222 7.0062C45.3576 6.77525 45.1913 6.58162 44.9398 6.45113L44.9397 6.4511C44.8372 6.39802 44.7344 6.34406 44.631 6.28984C44.0135 5.96589 43.3788 5.6329 42.7077 5.42533L42.7076 5.4253C41.4513 5.03794 40.1792 4.69668 38.9094 4.35604C38.391 4.21699 37.8731 4.07804 37.3567 3.9361L37.3567 3.93609L37.3552 3.93569C37.3023 3.92187 37.2471 3.90841 37.1911 3.89485C37.4222 3.49624 37.6464 3.25774 37.9072 3.12907C38.197 2.98612 38.5548 2.96756 39.0667 3.05777C41.6124 3.50778 44.0815 4.14683 46.3326 5.43322L46.3328 5.43332C46.5903 5.57991 46.8554 5.65053 47.1035 5.6008C47.3562 5.55015 47.5662 5.37987 47.7192 5.09745L47.7193 5.09743C47.8681 4.82258 47.8877 4.55875 47.7897 4.32834C47.6936 4.10233 47.4933 3.92936 47.2433 3.81191C46.3133 3.37282 45.3715 2.95941 44.4308 2.54648C44.2567 2.47002 44.0825 2.39358 43.9085 2.317L43.9081 2.31683C43.7521 2.24879 43.5873 2.19256 43.4045 2.13021C43.3802 2.12192 43.3555 2.11351 43.3306 2.10496C43.4912 1.96696 43.6501 1.87708 43.8126 1.82627C44.0236 1.76031 44.2503 1.75711 44.5094 1.81231L44.5095 1.81233C46.9159 2.32281 49.2308 3.11144 51.1747 4.57142C52.8416 5.82452 54.5703 6.07284 56.5047 5.75286L56.5048 5.75284C56.9045 5.68647 57.3075 5.66221 57.7454 5.63586C57.9169 5.62554 58.0939 5.61489 58.278 5.60126C58.5827 8.79485 58.884 11.9485 59.1921 15.1628C58.5223 15.2625 57.865 15.3606 57.2148 15.4576C56.3885 15.5809 55.5738 15.7025 54.7594 15.8236C54.6367 15.8414 54.5144 15.8598 54.3925 15.8782C54.0673 15.9272 53.7442 15.9759 53.42 16.0124C53.0651 16.0522 52.7861 16.1641 52.5969 16.3777C52.4082 16.5908 52.3269 16.8849 52.3231 17.2499C52.3163 17.8378 52.273 18.4199 52.2294 19.0067C52.2031 19.3598 52.1767 19.7145 52.158 20.0732C52.1186 20.8343 51.9642 21.3205 51.6183 21.6342C51.2803 21.9408 50.7346 22.1059 49.8484 22.1578C49.7144 21.7919 49.5773 21.4284 49.4404 21.0658C49.1222 20.2227 48.8056 19.3839 48.5347 18.5286L48.5347 18.5286C47.5625 15.4611 45.4987 13.5719 42.4082 12.7152L42.4081 12.7152C41.319 12.4137 40.2449 12.0865 39.1691 11.7587C38.2833 11.4889 37.3965 11.2187 36.4991 10.9622L36.499 10.9622C36.2151 10.8813 35.9972 10.7921 35.8403 10.6931C35.6839 10.5945 35.5957 10.4912 35.5563 10.3838C35.4778 10.1704 35.568 9.86278 35.9429 9.39676C35.9882 9.34098 36.0886 9.27972 36.2145 9.23965C36.3401 9.19965 36.4598 9.19069 36.5326 9.21002L36.5326 9.21003C37.9264 9.57937 39.3133 9.9749 40.701 10.3706C41.0943 10.4828 41.4877 10.595 41.8813 10.7066L41.9154 10.5863M44.0403 8.08095C43.9787 8.05035 43.9165 8.01841 43.8553 7.98706C43.8156 7.96671 43.7764 7.94661 43.7382 7.92727L43.7372 7.92677C41.253 6.64265 38.5634 6.03547 35.8141 5.57605L35.814 5.57603C35.7705 5.56871 35.69 5.58352 35.5768 5.63842C35.4688 5.69085 35.3488 5.77107 35.2347 5.86638C35.1208 5.96157 35.0164 6.06878 34.9381 6.17292C34.8578 6.27978 34.8135 6.37201 34.8036 6.4382L34.8036 6.43822C34.7845 6.56476 34.7953 6.6538 34.8196 6.71805C34.8434 6.78095 34.8835 6.82909 34.9396 6.86916C35.0606 6.95555 35.2405 6.99644 35.4568 7.04431C35.7083 7.09957 35.9611 7.15313 36.2146 7.20682C36.9571 7.36411 37.7046 7.52246 38.4376 7.72781C39.5332 8.03402 40.6205 8.37408 41.7056 8.71345C42.0864 8.83254 42.4669 8.95154 42.8474 9.06897L42.8105 9.18841M44.0403 8.08095C44.0403 8.08094 44.0403 8.08092 44.0402 8.08091L44.096 7.96905M44.0403 8.08095C44.0404 8.08097 44.0404 8.08098 44.0404 8.081L44.096 7.96905M42.8105 9.18841L42.8472 9.0689C43.1286 9.1552 43.3789 9.28662 43.5334 9.49444C43.6928 9.70892 43.7351 9.98375 43.6408 10.3189C43.5588 10.6114 43.3833 10.8116 43.1196 10.8953C42.8656 10.976 42.5499 10.942 42.193 10.8202C42.145 10.804 42.0975 10.7854 42.0535 10.7681C42.0452 10.7649 42.037 10.7617 42.0289 10.7585C41.9765 10.7381 41.9285 10.7201 41.881 10.7065L41.9154 10.5863M42.8105 9.18841C42.429 9.07068 42.0479 8.95148 41.6668 8.83228C40.5822 8.49309 39.4975 8.15385 38.4039 7.84819C37.6751 7.64402 36.9333 7.48687 36.1918 7.32979C35.9376 7.27594 35.6834 7.22209 35.4298 7.16636M42.8105 9.18841L35.4298 7.16636M41.9154 10.5863C41.5222 10.4749 41.1291 10.3627 40.7359 10.2506C39.3481 9.85483 37.9597 9.45887 36.5646 9.0892L42.2332 10.7018C42.1882 10.6867 42.144 10.6693 42.0998 10.652C42.0386 10.628 41.9776 10.6042 41.9154 10.5863ZM35.4298 7.16636L35.4206 7.16431C35.0079 7.07303 34.5953 6.98178 34.68 6.41959C34.7381 6.03358 35.5025 5.39684 35.8347 5.45276C38.5873 5.91273 41.2926 6.52241 43.7946 7.81573C43.8343 7.83579 43.874 7.85615 43.9138 7.87656C43.9741 7.90752 44.0348 7.93861 44.096 7.96905M35.4298 7.16636L44.096 7.96905M64.2776 16.3319L64.2776 16.3319C63.6131 16.4176 62.9474 16.4969 62.2425 16.5808C61.9188 16.6194 61.5868 16.659 61.2428 16.7006C60.9016 13.1597 60.5628 9.63177 60.2202 6.06457C60.1571 5.40744 60.0939 4.74897 60.0305 4.08884C61.6049 3.92607 63.1166 3.76951 64.6797 3.60672C65.356 7.34778 65.6038 11.0014 65.6846 14.6744C65.6945 15.1833 65.5776 15.5628 65.3508 15.8297C65.1242 16.0964 64.7729 16.2684 64.2776 16.3319Z" fill="black" stroke="black" stroke-width="0.25"/>
<path d="M10.6915 33.1825C10.7096 33.1733 10.7278 33.164 10.7461 33.1546C10.9084 33.0718 11.078 32.9852 11.2492 32.9065L11.2495 32.9063C11.9819 32.5723 12.7362 32.5953 13.348 32.9091C13.96 33.2229 14.4196 33.8226 14.5726 34.6218M10.6915 33.1825L16.09 42.4245C16.0469 42.2203 15.9914 42.0182 15.9371 41.8204C15.932 41.8016 15.9268 41.7828 15.9217 41.7641C15.8622 41.5468 15.8054 41.334 15.7656 41.1197L15.7656 41.1196C15.5895 40.1786 15.4191 39.2348 15.2485 38.2907C15.0274 37.0667 14.8061 35.8421 14.5726 34.6218M10.6915 33.1825C10.0153 32.385 9.37909 31.9309 8.67864 31.8493C7.95751 31.7652 7.20529 32.0803 6.31974 32.7317C6.19854 32.8204 6.07852 32.9153 5.96077 33.0085C5.89983 33.0567 5.8395 33.1044 5.77993 33.1506C5.60241 33.288 5.42585 33.416 5.2381 33.5205C4.21821 34.0867 3.48463 34.7905 3.07783 35.6509C2.67054 36.5123 2.5975 37.5164 2.87316 38.6697L2.99452 38.6407L2.87313 38.6696C2.9342 38.9264 2.91353 39.1253 2.833 39.2933C2.75107 39.4642 2.60038 39.6175 2.375 39.7688C1.82248 40.1391 1.43017 40.5904 1.19467 41.1199C0.959393 41.649 0.884094 42.2485 0.953065 42.9106L0.953071 42.9107C1.25624 45.8064 2.11833 48.5167 3.48166 51.0877L3.48168 51.0877C3.74336 51.5808 3.9683 52.1687 3.91627 52.6573L3.91624 52.6576C3.82689 53.5161 3.64329 54.3602 3.45535 55.2243C3.38512 55.5473 3.31428 55.873 3.24753 56.2033C3.24304 56.203 3.23855 56.2027 3.23406 56.2025C2.94543 56.1858 2.63563 56.1678 2.37432 56.2453C2.21955 56.2913 2.07676 56.3713 1.96024 56.5052C1.8445 56.6382 1.76125 56.8167 1.71222 57.0496L10.6915 33.1825ZM14.5726 34.6218L14.4498 34.6453L14.5726 34.6218C14.5726 34.6218 14.5726 34.6218 14.5726 34.6218ZM20.9129 54.0366L20.9127 54.0366C20.4652 54.0401 20.018 54.0285 19.5732 54.017L19.5168 54.0156C19.0527 54.0036 18.5911 53.9924 18.13 53.9987L18.1295 53.9987C18.0588 53.9994 17.9502 54.0285 17.8523 54.077C17.8045 54.1007 17.7644 54.1265 17.736 54.1511C17.7219 54.1633 17.7121 54.1739 17.7058 54.1824C17.7011 54.1888 17.6992 54.1927 17.6987 54.1941C17.6985 54.1946 17.6984 54.1948 17.6984 54.1946L17.5782 54.1605L17.6985 54.1946C17.3432 55.4491 17.0137 56.7101 16.6753 58.0056C16.5939 58.3172 16.512 58.6307 16.4291 58.9466C16.4829 58.9607 16.535 58.9745 16.5859 58.988C16.7684 59.0364 16.9349 59.0806 17.1055 59.1178C17.1055 59.1179 17.1055 59.1179 17.1056 59.1179L17.0789 59.24C17.6744 59.3699 17.945 59.7414 17.807 60.3223L20.9129 54.0366ZM20.9129 54.0366C22.3854 54.0235 23.579 53.1695 24.0778 51.7878L20.9129 54.0366ZM22.6048 50.2081C22.0581 49.9179 21.5181 49.6332 20.9833 49.3512C19.8383 48.7475 18.7171 48.1565 17.6056 47.5512C16.0118 46.6833 14.898 45.3697 14.495 43.6L14.4949 43.5999C14.0377 41.5856 13.6374 39.5591 13.2374 37.5342C13.089 36.7828 12.9406 36.0317 12.7894 35.2815C12.7826 35.248 12.7763 35.2154 12.7702 35.1835C12.7556 35.1079 12.7417 35.0364 12.7243 34.9666C12.6997 34.8688 12.6708 34.7876 12.6313 34.7243C12.5933 34.6634 12.5461 34.6199 12.4813 34.5937C12.4145 34.5667 12.3183 34.5537 12.1762 34.5742C11.8463 34.622 11.5509 34.7722 11.3498 34.9641C11.1467 35.158 11.0546 35.3782 11.087 35.5697L22.6048 50.2081ZM22.6048 50.2081C22.5891 50.2592 22.573 50.3119 22.5566 50.3659C22.4949 50.5687 22.4279 50.7891 22.3516 51.0078L22.3516 51.0079C22.2058 51.4267 22.0165 51.7141 21.7667 51.8969C21.5177 52.079 21.1935 52.1683 20.7558 52.1614L20.7557 52.1614C19.717 52.1458 18.6781 52.0939 17.6382 52.0419C17.5936 52.0397 17.5491 52.0375 17.5046 52.0353C17.2695 52.0235 17.0748 52.0207 16.9128 52.039C16.7496 52.0574 16.6111 52.098 16.494 52.1794C16.2624 52.3403 16.1529 52.6349 16.0358 53.0711L16.0358 53.0711C15.8143 53.8964 15.5941 54.7217 15.3739 55.547C15.1538 56.3722 14.9337 57.1974 14.7122 58.0225L14.7121 58.0229C14.6764 58.1578 14.6355 58.289 14.5901 58.4343C14.5749 58.483 14.5593 58.5333 14.5431 58.5858C11.3876 57.9328 8.264 57.2882 5.09816 56.6352C5.15836 56.3225 5.21627 56.0147 5.27349 55.7106C5.42643 54.8977 5.5744 54.1112 5.74767 53.329C5.98207 52.2727 5.79507 51.3106 5.27149 50.385C3.91052 47.975 3.06518 45.4005 2.85429 42.6446L2.85426 42.6442C2.83891 42.4509 2.88265 42.2464 2.949 42.0256C2.97166 41.9502 2.99772 41.8708 3.02438 41.7897C3.0613 41.6772 3.09937 41.5613 3.13111 41.4476C3.14517 41.4485 3.15919 41.4494 3.17315 41.4503L3.17365 41.4504C3.19163 41.4515 3.20951 41.4527 3.2273 41.4539C3.24037 41.5085 3.25318 41.564 3.26613 41.6201C3.30832 41.803 3.35183 41.9916 3.40953 42.171L22.6048 50.2081ZM10.2603 41.7903L10.2603 41.7901C9.95143 40.2921 9.65879 38.7898 9.40426 37.2816L9.40424 37.2815C9.30672 36.7002 9.24061 36.1063 9.17496 35.5165C9.1307 35.1188 9.08663 34.7229 9.03328 34.334L9.03326 34.3339C9.0019 34.1035 8.91191 33.9419 8.78957 33.8483C8.66896 33.7562 8.4991 33.7165 8.27758 33.7645L8.27751 33.7646C8.06435 33.8106 7.8733 33.8742 7.73984 33.9858C7.61473 34.0905 7.52913 34.2467 7.54432 34.5119L7.54432 34.512C7.70208 37.3024 8.02445 40.0492 9.07514 42.6543C9.18472 42.926 9.24646 43.199 9.1911 43.4489C9.13378 43.7076 8.957 43.9167 8.64495 44.0672C8.38468 44.1934 8.10892 44.1976 7.8691 44.0716C7.63144 43.9468 7.44605 43.7032 7.34187 43.3657L10.2603 41.7903ZM10.2603 41.7903C10.3357 42.1532 10.4857 42.4308 10.7062 42.5924C10.9312 42.7572 11.2092 42.7866 11.5031 42.692L10.2603 41.7903ZM6.25543 44.8669L6.25548 44.867C6.37611 45.1379 6.40372 45.4016 6.31925 45.6319C6.2342 45.8638 6.04379 46.0394 5.77422 46.1485L5.77407 46.1486C5.50234 46.2581 5.23737 46.2612 5.01169 46.1541C4.78671 46.0473 4.61895 45.8397 4.52344 45.5631C4.52342 45.563 4.52341 45.563 4.52339 45.5629L4.64155 45.5221C4.29895 44.5359 3.98013 43.5413 3.66177 42.5482L6.25543 44.8669ZM6.25543 44.8669C5.22042 42.5494 4.89845 40.0782 4.64244 37.5638C4.59063 37.0543 4.65783 36.6506 4.84449 36.324C5.01014 36.0341 5.27663 35.7933 5.66413 35.5927M6.25543 44.8669L5.66413 35.5927M5.66413 35.5927C5.70463 35.9068 5.74095 36.2222 5.77728 36.5377C5.87544 37.3903 5.97375 38.2442 6.15533 39.0767L5.66413 35.5927ZM23.895 48.4925L23.8447 48.6051L23.895 48.4925C23.895 48.4925 23.895 48.4925 23.895 48.4925ZM0.416164 62.9753L0.416121 62.9755L0.538138 63.0027L0.41617 62.9753C0.416168 62.9753 0.416166 62.9753 0.416164 62.9753ZM6.14129 44.9179C6.36462 45.4193 6.21755 45.8342 5.72732 46.0326L6.14129 44.9179ZM12.4976 60.0829C13.6259 60.3157 14.7561 60.5489 15.89 60.7829C15.7157 61.4982 15.5445 62.202 15.3731 62.9064C15.1924 63.6491 15.0115 64.3923 14.8268 65.1501C10.6263 64.6097 6.50029 63.9632 2.40455 62.7413C2.65967 61.58 2.90843 60.4421 3.16276 59.2786C3.24031 58.9239 3.31838 58.5667 3.39731 58.2059C6.44268 58.8336 9.46349 59.4569 12.4976 60.0829Z" fill="black" stroke="black" stroke-width="0.25"/>
<path d="M23.5151 5.69773C22.9358 5.69006 22.5119 5.88214 22.1107 6.28261L22.1107 6.28269C20.6705 7.723 19.2239 9.15532 17.7771 10.5878C16.7705 11.5844 15.7639 12.5811 14.7593 13.5805C14.5669 13.7717 14.3567 13.9575 14.1414 14.1452C14.1108 14.1718 14.0801 14.1985 14.0493 14.2253C13.8645 14.386 13.6773 14.5488 13.4992 14.7155C13.0847 15.1034 12.7062 15.5242 12.5004 16.0223L12.5004 16.0225C12.2907 16.5319 12.2517 17.1056 12.2617 17.6821C12.2663 17.9409 12.2808 18.2034 12.2952 18.4626C12.2968 18.4926 12.2985 18.5227 12.3002 18.5526C12.3161 18.842 12.3303 19.1266 12.3294 19.4031L12.3294 19.4031C12.3235 21.6158 12.3244 23.8294 12.3254 26.0425C12.3259 27.2719 12.3264 28.5012 12.3257 29.7301V29.7302C12.3257 30.0134 12.3636 30.2915 12.4994 30.5096C12.6406 30.7363 12.8755 30.8797 13.2249 30.9134L13.2252 30.9134C13.5236 30.9416 13.7737 30.8342 13.9475 30.6159C14.1168 30.4032 14.2057 30.096 14.217 29.7323L14.2171 29.7309L29.6941 5.84617L29.6958 5.72118C28.6644 5.70764 27.6332 5.70764 26.6031 5.70809L26.4968 5.70814C25.502 5.70859 24.5083 5.70904 23.5151 5.69773ZM23.5151 5.69773C23.5152 5.69773 23.5152 5.69773 23.5153 5.69773L23.5136 5.82272L23.515 5.69773C23.5151 5.69773 23.5151 5.69773 23.5151 5.69773ZM14.2171 17.1794H14.0921V17.3044H14.094H14.0958H14.0977H14.0995H14.1014H14.1032H14.1051H14.1069H14.1088H14.1106H14.1125H14.1143H14.1162H14.118H14.1198H14.1217H14.1235H14.1253H14.1272H14.129H14.1308H14.1326H14.1345H14.1363H14.1381H14.1399H14.1418H14.1436H14.1454H14.1472H14.149H14.1508H14.1526H14.1544H14.1562H14.158H14.1598H14.1616H14.1634H14.1652H14.167H14.1688H14.1706H14.1724H14.1742H14.176H14.1778H14.1796H14.1813H14.1831H14.1849H14.1867H14.1885H14.1902H14.192H14.1938H14.1956H14.1973H14.1991H14.2009H14.2026H14.2044H14.2061H14.2079H14.2097H14.2114H14.2132H14.2149H14.2167H14.2171V17.3031V17.3012V17.2993V17.2974V17.2954V17.2935V17.2916V17.2897V17.2878V17.2858V17.2839V17.282V17.2801V17.2781V17.2762V17.2743V17.2723V17.2704V17.2684V17.2665V17.2646V17.2626V17.2607V17.2587V17.2568V17.2548V17.2529V17.2509V17.249V17.247V17.245V17.2431V17.2411V17.2391V17.2372V17.2352V17.2332V17.2313V17.2293V17.2273V17.2253V17.2234V17.2214V17.2194V17.2174V17.2154V17.2134V17.2115V17.2095V17.2075V17.2055V17.2035V17.2015V17.1995V17.1975V17.1955V17.1935V17.1915V17.1895V17.1874V17.1854V17.1834V17.1814V17.1794ZM30.5983 6.16544L30.6837 6.07414C30.6836 6.074 30.6834 6.07385 30.6833 6.07371L30.5983 6.16544ZM29.8716 7.55666C29.8717 7.55666 29.8717 7.55666 29.8718 7.55666L29.8684 7.4317L29.8715 7.55667C29.8715 7.55667 29.8716 7.55666 29.8716 7.55666ZM24.069 7.58015C24.0714 7.54166 24.0738 7.50233 24.076 7.46199L23.9512 7.45515V7.58015H23.9531H23.955H23.957H23.9589H23.9608H23.9628H23.9647H23.9666H23.9685H23.9704H23.9724H23.9743H23.9762H23.9781H23.98H23.9819H23.9838H23.9857H23.9876H23.9895H23.9914H23.9933H23.9952H23.9971H23.999H24.0009H24.0028H24.0047H24.0065H24.0084H24.0103H24.0122H24.0141H24.0159H24.0178H24.0197H24.0215H24.0234H24.0253H24.0271H24.029H24.0309H24.0327H24.0346H24.0364H24.0383H24.0401H24.042H24.0438H24.0457H24.0475H24.0494H24.0512H24.053H24.0549H24.0567H24.0586H24.0604H24.0622H24.064H24.0659H24.0677H24.069ZM20.6015 17.3044L20.6013 17.1794L20.6015 17.3044C20.6015 17.3044 20.6015 17.3044 20.6015 17.3044ZM22.1503 13.86V13.86L22.2753 13.8604L22.1503 13.86Z" fill="black" stroke="black" stroke-width="0.25"/>
<path d="M32.0963 31.7214C30.5366 31.3607 29.3837 32.0713 29.1131 33.518C29.0387 33.913 29.0278 34.3207 28.9969 34.7247C28.9624 35.1919 28.7336 35.4949 28.2543 35.531C27.735 35.5689 27.4627 35.2659 27.3792 34.7824C27.0741 33.0454 28.2325 30.8917 29.7994 30.273C31.7077 29.5208 33.7122 30.1178 34.8179 31.7954C35.7367 33.1897 35.9727 34.6995 35.4897 36.303C35.2192 37.1995 34.5111 37.7713 33.6287 37.8254C32.7354 37.8814 31.9583 37.4196 31.5715 36.5664C30.9379 35.1667 30.9833 33.7759 31.6968 32.4123C31.8112 32.194 31.9419 31.9848 32.0963 31.7178V31.7214ZM33.4635 32.7117C32.7336 33.7236 32.5647 34.7103 33.0295 35.7619C33.1112 35.9459 33.369 36.0523 33.5452 36.1966C33.6904 36.018 33.9137 35.8593 33.9682 35.6555C34.2406 34.6526 34.0735 33.702 33.4635 32.7135V32.7117Z" fill="#FFDD03"/>
<path d="M63.6619 12.9753L63.6758 12.976C63.9578 12.9915 64.2002 13.073 64.3744 13.2313C64.5509 13.3918 64.6432 13.6182 64.6473 13.8926L63.6619 12.9753ZM63.6619 12.9753L63.6481 12.9776M63.6619 12.9753L63.6481 12.9776M63.6481 12.9776C63.3965 13.02 63.1751 13.1143 63.0201 13.2811M63.6481 12.9776L63.0201 13.2811M64.4015 14.5726C64.2349 14.743 63.9975 14.833 63.7179 14.833C63.4621 14.833 63.2372 14.7579 63.0722 14.6042C62.9067 14.4502 62.8145 14.2295 62.8015 13.9638L64.4015 14.5726ZM64.4015 14.5726C64.5679 14.4024 64.6513 14.1647 64.6473 13.8927L64.4015 14.5726ZM63.0201 13.2811C62.8628 13.4506 62.7874 13.6802 62.8015 13.9638L63.0201 13.2811Z" fill="black" stroke="black" stroke-width="0.25"/>
<path d="M13.7484 62.9018L13.7561 62.7696H13.7286C13.6875 62.5588 13.6029 62.3756 13.4618 62.2406C13.2948 62.0807 13.0645 62.0033 12.78 62.0102L12.7797 62.0102C12.5107 62.0172 12.2859 62.1053 12.1271 62.2669C11.9686 62.4282 11.8878 62.6504 11.8827 62.9029L11.8827 62.9031C11.8777 63.1784 11.9627 63.4175 12.1296 63.5884C12.2965 63.7594 12.5336 63.8501 12.8098 63.8511C13.0841 63.8521 13.315 63.768 13.481 63.5969C13.6454 63.4274 13.7318 63.187 13.7484 62.9018Z" fill="black" stroke="black" stroke-width="0.25"/>
</g>
<defs>
<clipPath id="clip0_1_674">
<rect width="67" height="67" fill="white" transform="translate(0.5)"/>
</clipPath>
</defs>
</svg>
