<svg width="68" height="67" viewBox="0 0 68 67" fill="none" xmlns="http://www.w3.org/2000/svg">
<path d="M13.0625 23.0312C17.1034 23.0312 20.3906 19.7441 20.3906 15.7031C20.3906 11.6622 17.1034 8.375 13.0625 8.375C9.02156 8.375 5.73438 11.6622 5.73438 15.7031C5.73438 19.7441 9.02156 23.0312 13.0625 23.0312ZM13.0625 10.4688C15.9519 10.4688 18.2969 12.8138 18.2969 15.7031C18.2969 18.5925 15.9519 20.9375 13.0625 20.9375C10.1731 20.9375 7.82812 18.5925 7.82812 15.7031C7.82812 12.8138 10.1731 10.4688 13.0625 10.4688Z" fill="black"/>
<path d="M59.125 32.4531C62.5902 32.4531 65.4062 29.637 65.4062 26.1719C65.4062 22.7067 62.5902 19.8906 59.125 19.8906C55.6598 19.8906 52.8438 22.7067 52.8438 26.1719C52.8438 29.637 55.6598 32.4531 59.125 32.4531ZM59.125 21.9844C61.4386 21.9844 63.3125 23.8583 63.3125 26.1719C63.3125 28.4855 61.4386 30.3594 59.125 30.3594C56.8114 30.3594 54.9375 28.4855 54.9375 26.1719C54.9375 23.8583 56.8114 21.9844 59.125 21.9844Z" fill="black"/>
<path d="M66.4531 50.25V40.8281C66.4531 36.7872 63.1659 33.5 59.125 33.5C55.0841 33.5 51.7969 36.7872 51.7969 40.8281V42.9219H44.4687C42.7414 42.9219 41.3281 44.3352 41.3281 46.0625C41.3281 46.4289 41.4014 46.7848 41.5166 47.1094H21.4375C22.0133 47.1094 22.4844 46.6383 22.4844 46.0625V40.2523L33.822 31.4272C34.5339 30.8723 34.9841 30.0348 35.0364 29.1241C35.0888 28.2133 34.7538 27.3339 34.1152 26.6953C33.0159 25.5961 31.3095 25.46 30.0428 26.3603L22.4844 31.7622V31.4062C22.4844 27.3653 19.1972 24.0781 15.1562 24.0781H10.9687C6.92781 24.0781 3.64062 27.3653 3.64062 31.4062V46.0625C3.64062 46.6383 4.11172 47.1094 4.6875 47.1094V63.8594H1.54688V65.9531H66.4531V63.8594H61.2187V57.2745C64.2442 56.3742 66.4531 53.5686 66.4531 50.25ZM44.4687 49.2031H45.0864L44.5211 49.7684C43.5266 50.7525 42.218 51.2969 40.8152 51.2969H27.1744C25.782 51.2969 24.463 50.7525 23.4684 49.7684L22.9031 49.2031H44.4583H44.4687ZM22.3587 34.4213L31.2677 28.0562C31.6969 27.7527 32.2727 27.7945 32.6391 28.1714C32.8589 28.3912 32.9741 28.6844 32.9531 28.9984C32.9322 29.3125 32.7856 29.5847 32.5448 29.7731L21.7097 38.2005L16.0252 34.4108C15.6483 34.1595 15.418 33.7617 15.3761 33.322C15.3342 32.8823 15.4912 32.4427 15.8053 32.1286C16.0984 31.8355 16.4753 31.6889 16.8522 31.6889C17.1558 31.6889 17.4594 31.7831 17.7211 31.9716L21.1548 34.4213C21.5212 34.683 22.0028 34.683 22.3692 34.4213H22.3587ZM11.22 63.8594L13.0625 55.2436L14.905 63.8594H11.2095H11.22ZM19.3437 63.8594H17.0511L14.0884 50.0302C13.9837 49.5486 13.5545 49.2031 13.0625 49.2031C12.5705 49.2031 12.1413 49.5486 12.0366 50.0302L9.07391 63.8594H6.78125V47.1094H19.3437V63.8594ZM20.3906 45.0156H5.73437V31.4062C5.73437 28.5169 8.07938 26.1719 10.9687 26.1719H15.1562C18.0142 26.1719 20.3278 28.4645 20.3802 31.312L18.925 30.2652C17.4908 29.2497 15.5541 29.4067 14.3083 30.642C13.5441 31.4063 13.1672 32.4531 13.2823 33.5209C13.387 34.5888 13.9628 35.5519 14.8631 36.1486L20.4011 39.8336V45.0052L20.3906 45.0156ZM28.8703 63.8594H21.4375V50.6792L22.0028 51.2445C23.3847 52.6264 25.2272 53.3906 27.1848 53.3906H32.9531V59.7766C30.9012 60.1953 29.2891 61.8075 28.8703 63.8594ZM31.0478 63.8594C31.477 62.645 32.6286 61.7656 34 61.7656C35.3714 61.7656 36.5125 62.645 36.9522 63.8594H31.0583H31.0478ZM39.1192 63.8594C38.7005 61.8075 37.0883 60.1953 35.0364 59.7766V53.3906H40.8047C42.7623 53.3906 44.6048 52.6264 45.9867 51.2445L48.0281 49.2031H51.5352L50.6034 49.6742C48.1014 50.92 46.552 53.4325 46.552 56.2277V62.8125C46.552 63.1789 46.6253 63.5348 46.7405 63.8594H39.1087H39.1192ZM59.1145 63.8594H52.6448C52.76 63.5348 52.8333 63.1789 52.8333 62.8125V58.625C52.8333 58.0492 53.3044 57.5781 53.8802 57.5781H59.1145V63.8594ZM59.1145 55.4844H53.8802C52.1528 55.4844 50.7395 56.8977 50.7395 58.625V62.8125C50.7395 63.3883 50.2684 63.8594 49.6927 63.8594C49.1169 63.8594 48.6458 63.3883 48.6458 62.8125V56.2277C48.6458 54.2281 49.7555 52.438 51.5352 51.5481L56.2147 49.2031H57.0103C57.5861 49.2031 58.0572 48.732 58.0572 48.1562V39.7812H55.9634V47.1094H44.4478C43.872 47.1094 43.4009 46.6383 43.4009 46.0625C43.4009 45.4867 43.872 45.0156 44.4478 45.0156H52.8228C53.3986 45.0156 53.8697 44.5445 53.8697 43.9687V40.8281C53.8697 37.9388 56.2147 35.5937 59.1041 35.5937C61.9934 35.5937 64.3384 37.9388 64.3384 40.8281V50.25C64.3384 53.1394 61.9934 55.4844 59.1041 55.4844H59.1145Z" fill="black"/>
<path d="M22.4844 11.5156H25.2167L23.5836 16.415C23.437 16.8547 23.5836 17.3258 23.9605 17.598C24.1384 17.7341 24.3583 17.7969 24.5677 17.7969C24.777 17.7969 25.0073 17.7236 25.1958 17.5875L33.2881 11.5156H41.3177C41.8934 11.5156 42.3645 11.0445 42.3645 10.4688V2.09375C42.3645 1.51797 41.8934 1.04688 41.3177 1.04688H22.4844C21.9086 1.04688 21.4375 1.51797 21.4375 2.09375V10.4688C21.4375 11.0445 21.9086 11.5156 22.4844 11.5156ZM23.5312 3.14062H40.2812V9.42188H32.9531C32.7228 9.42188 32.503 9.49516 32.325 9.63125L26.63 13.9025L27.6664 10.8037C27.7711 10.4792 27.7187 10.1338 27.5198 9.86156C27.3209 9.58938 27.0069 9.42188 26.6719 9.42188H23.5312V3.14062Z" fill="#FFDD03"/>
<path d="M26.6719 5.23438H28.7656V7.32812H26.6719V5.23438Z" fill="#FFDD03"/>
<path d="M30.8594 5.23438H32.9531V7.32812H30.8594V5.23438Z" fill="#FFDD03"/>
<path d="M35.0469 5.23438H37.1406V7.32812H35.0469V5.23438Z" fill="#FFDD03"/>
</svg>
